<?xml version="1.0" encoding="UTF-8"?>
<svg xmlns="http://www.w3.org/2000/svg" width="70" height="32" viewBox="0 0 70 32">
  <g id="16-16-start-here-kde" transform="translate(8 24) scale(0.55)" fill="#3dd425" stroke="#71f79f" stroke-width="0.75" stroke-linejoin="round">
    <path d="M-2.1-3.1h4.2v-11.2h-4.2z"/>
    <path d="M-2.1 3.1h4.2v11.2h-4.2z"/>
    <path d="M1.7-3.4 3.8.2 13.5-5.4 11.4-9z"/>
    <path d="M-1.7 3.4-3.8-.2-13.5 5.4-11.4 9z"/>
    <path d="M3.8-.2 1.7 3.4 11.4 9 13.5 5.4z"/>
    <path d="M-3.8.2-1.7-3.4-11.4-9-13.5-5.4z"/>
    <circle cx="0" cy="0" r="2.7" fill="#011209" stroke="#3dd425" stroke-width="0.9"/>
  </g>
  <g id="22-22-start-here-kde" transform="translate(27 21) scale(0.76)" fill="#3dd425" stroke="#71f79f" stroke-width="0.75" stroke-linejoin="round">
    <path d="M-2.1-3.1h4.2v-11.2h-4.2z"/>
    <path d="M-2.1 3.1h4.2v11.2h-4.2z"/>
    <path d="M1.7-3.4 3.8.2 13.5-5.4 11.4-9z"/>
    <path d="M-1.7 3.4-3.8-.2-13.5 5.4-11.4 9z"/>
    <path d="M3.8-.2 1.7 3.4 11.4 9 13.5 5.4z"/>
    <path d="M-3.8.2-1.7-3.4-11.4-9-13.5-5.4z"/>
    <circle cx="0" cy="0" r="2.7" fill="#011209" stroke="#3dd425" stroke-width="0.9"/>
  </g>
  <g id="start-here-kde" transform="translate(54 16) scale(1.08)" fill="#3dd425" stroke="#71f79f" stroke-width="0.75" stroke-linejoin="round">
    <path d="M-2.1-3.1h4.2v-11.2h-4.2z"/>
    <path d="M-2.1 3.1h4.2v11.2h-4.2z"/>
    <path d="M1.7-3.4 3.8.2 13.5-5.4 11.4-9z"/>
    <path d="M-1.7 3.4-3.8-.2-13.5 5.4-11.4 9z"/>
    <path d="M3.8-.2 1.7 3.4 11.4 9 13.5 5.4z"/>
    <path d="M-3.8.2-1.7-3.4-11.4-9-13.5-5.4z"/>
    <circle cx="0" cy="0" r="2.7" fill="#011209" stroke="#3dd425" stroke-width="0.9"/>
  </g>
</svg>
